<svg width="1200" height="1200" xmlns="http://www.w3.org/2000/svg" xmlns:xlink="http://www.w3.org/1999/xlink" version="1.1"><g transform="scale(11.06286630303574) translate(4.428815298610261, 4.6044320993953285)">                        <g fill="#ffffff"><path xmlns="http://www.w3.org/2000/svg" d="M98.334,28.896c0.36-7.307-2.236-14.735-7.835-20.302C80.012-1.818,63.066-1.768,52.652,8.718  c-4.513,4.542-7.053,10.297-7.637,16.207c-1.069,4.739-3.41,9.243-7.082,12.942c-3.675,3.698-8.165,6.069-12.891,7.17  c-5.908,0.624-11.645,3.201-16.162,7.743C-1.534,63.267-1.478,80.212,9.008,90.625c5.612,5.576,13.072,8.12,20.393,7.702  l-0.046,0.116c15.102-0.597,33.425-7.547,47.623-21.839c14.199-14.293,21.034-32.668,21.529-47.775L98.334,28.896z M55.924,28.279  c-4.741,23.419-25.5,27.847-30.526,28.561C25.228,56.892,25.049,57,24.863,57c-0.029,0-0.058,0-0.086,0  c-1.984,0-2.143-1.846-2.148-1.923c-0.05-0.656,0.284-1.99,1.906-2.198c3.829-0.489,23.148-4.032,27.47-25.38  c0.219-1.083,1.276-1.788,2.356-1.573C55.443,26.146,56.144,27.196,55.924,28.279z"/></g>        </g></svg>