<?xml version="1.0" encoding="UTF-8"?>
<!-- Generated by Pixelmator Pro 3.7.1 -->
<svg width="3162" height="526" viewBox="0 0 3162 526" xmlns="http://www.w3.org/2000/svg">
    <g id="Group">
        <g id="SvgjsG1007">
            <path id="Path" fill="#fe5101" stroke="none" d="M 444.106323 185.25473 C 445.450592 157.970001 435.756989 130.233429 414.850006 109.445953 C 375.690979 70.566986 312.413696 70.753693 273.527252 109.908966 C 256.675476 126.869049 247.190964 148.358521 245.010284 170.426788 C 241.018585 188.122467 232.277161 204.940643 218.565704 218.75293 C 204.843063 232.561462 188.077164 241.414886 170.430023 245.526093 C 148.369232 247.85614 126.94696 257.47879 110.080231 274.438873 C 71.193794 313.5979 71.402901 376.87146 110.558197 415.75415 C 131.513702 436.575226 159.369751 446.074677 186.706757 444.513855 L 186.534988 444.946991 C 242.926682 442.717773 311.345764 416.766113 364.361847 363.398987 C 417.381714 310.028137 442.903961 241.414886 444.752319 185.004547 L 444.106323 185.25473 Z M 285.745087 182.950806 C 268.041931 270.398621 190.526703 286.933014 171.759338 289.599121 C 171.124557 289.793274 170.456161 290.196594 169.761627 290.196594 C 169.653336 290.196594 169.545044 290.196594 169.440491 290.196594 C 162.032135 290.196594 161.438416 283.303528 161.419739 283.015991 C 161.233047 280.566467 162.480225 275.585236 168.53685 274.808533 C 182.834549 272.982605 254.972733 259.752838 271.111328 180.038239 C 271.929077 175.994263 275.875977 173.361755 279.908752 174.164581 C 283.949005 174.986084 286.566589 178.90683 285.745087 182.950806 Z"/>
        </g>
        <g id="SvgjsG1008">
            <path id="path1" fill="#fe5101" stroke="none" d="M 707.140381 137.151245 C 730.702209 137.151245 750.494263 143.795715 766.516479 157.084656 C 782.538696 170.373566 791.775085 187.950897 794.225586 209.816284 L 751.248596 209.816284 C 749.740723 199.826111 744.745544 191.437958 736.263245 184.6521 C 727.780945 177.866272 718.073486 174.473358 707.140686 174.473358 C 689.799194 174.473358 676.321655 180.693726 666.708374 193.13443 C 657.095093 205.575134 652.288452 222.445557 652.288452 243.745483 C 652.288452 264.479889 657.142334 280.926208 666.849731 293.084167 C 676.55719 305.242157 689.987488 311.321136 707.140686 311.321136 C 719.958252 311.321136 730.325623 307.409943 738.242432 299.58728 C 746.159241 291.764618 751.060059 280.596252 752.945068 266.082184 L 795.922058 266.082184 C 793.660095 291.717682 784.470947 311.886597 768.354614 326.589294 C 752.23822 341.291931 731.833496 348.64325 707.140686 348.64325 C 677.546753 348.64325 653.607727 338.888611 635.323608 319.379333 C 617.039429 299.869995 607.897461 274.65863 607.897461 243.745483 C 607.897461 212.455109 616.945251 186.866852 635.040833 166.980652 C 653.136414 147.094482 677.169617 137.151245 707.140381 137.151245 Z M 863.214722 141.957886 L 863.214722 343.836609 L 823.065125 343.836609 L 823.065125 141.957886 L 863.214722 141.957886 Z M 965.850525 193.69989 C 989.22406 193.69989 1007.696533 200.815704 1021.26825 215.047028 C 1034.839844 229.278351 1041.625732 247.892181 1041.625732 270.88855 C 1041.625732 294.073517 1034.698486 312.687347 1020.844116 326.730347 C 1006.989685 340.773376 988.658569 347.794739 965.850525 347.794739 C 942.665588 347.794739 924.287231 340.678955 910.715576 326.447601 C 897.143921 312.216309 890.358032 293.696594 890.358032 270.88855 C 890.358032 247.326691 897.285278 228.571472 911.139709 214.622894 C 924.994141 200.674316 943.231079 193.69989 965.850525 193.69989 Z M 930.507629 270.888855 C 930.507629 285.78009 933.523621 297.277832 939.55542 305.38324 C 945.587158 313.488647 954.352234 317.541199 965.850525 317.541199 C 977.725769 317.541199 986.632141 313.394196 992.569763 305.100464 C 998.507385 296.806793 1001.476196 285.402893 1001.476196 270.888855 C 1001.476196 255.809296 998.413269 244.216797 992.287048 236.11142 C 986.160828 228.005981 977.254395 223.953461 965.56781 223.953461 C 954.258057 223.953461 945.587158 228.005981 939.55542 236.11142 C 933.523621 244.216797 930.507629 255.809296 930.507629 270.888855 Z M 1107.78772 197.658295 L 1107.78772 280.501526 C 1107.78772 291.811279 1109.578247 300.576324 1113.15979 306.796661 C 1116.741333 313.017029 1123.527222 316.127197 1133.517334 316.127197 C 1144.63855 316.127197 1152.602539 312.82843 1157.40918 306.231201 C 1162.21582 299.633942 1164.619141 289.078278 1164.619141 274.564209 L 1164.619141 197.65802 L 1204.768677 197.65802 L 1204.768677 343.836365 L 1166.598267 343.836365 L 1166.598267 323.478821 L 1165.750122 323.478821 C 1155.759888 339.689331 1140.774536 347.794739 1120.793945 347.794739 C 1101.755981 347.794739 1088.136963 342.940857 1079.9375 333.233459 C 1071.737915 323.526031 1067.638062 308.58786 1067.638062 288.418915 L 1067.638062 197.658295 L 1107.78772 197.658295 Z M 1377.807617 141.957886 L 1377.807617 343.836609 L 1339.637207 343.836609 L 1339.637207 325.175537 L 1339.071777 325.175537 C 1330.400879 340.255127 1315.604004 347.795044 1294.68103 347.795044 C 1274.512085 347.795044 1258.537109 340.443695 1246.756104 325.741028 C 1234.974976 311.038391 1229.084595 292.283173 1229.084595 269.475128 C 1229.084595 247.232544 1235.069458 229.042816 1247.038818 214.90567 C 1259.008179 200.768494 1274.606201 193.69989 1293.832764 193.69989 C 1302.692017 193.69989 1311.032959 195.53775 1318.855591 199.213409 C 1326.678223 202.889069 1332.757202 208.308411 1337.092529 215.47113 L 1337.658081 215.47113 L 1337.658081 141.957886 L 1377.807617 141.957886 Z M 1269.234131 270.606079 C 1269.234131 283.989197 1272.391235 295.157532 1278.705688 304.111176 C 1285.020264 313.064819 1293.643921 317.541473 1304.576782 317.541473 C 1316.075073 317.541473 1324.69873 313.347534 1330.447754 304.959412 C 1336.196777 296.571259 1339.071411 285.026001 1339.071411 270.323364 C 1339.071411 255.620697 1336.05542 244.216797 1330.023682 236.11142 C 1323.991821 228.005981 1315.415405 223.953461 1304.294312 223.953461 C 1292.796021 223.953461 1284.078125 228.19458 1278.140503 236.67688 C 1272.202881 245.15921 1269.234131 256.468933 1269.234131 270.606079 Z M 1466.306274 193.69989 C 1486.475098 193.69989 1500.988892 201.522278 1509.848145 217.167328 L 1510.413574 217.167328 L 1510.413574 197.65802 L 1548.583984 197.65802 L 1548.583984 334.788544 C 1548.583984 355.900146 1542.033569 371.922363 1528.933228 382.855194 C 1515.833008 393.788025 1497.219116 399.254303 1473.091797 399.254303 C 1454.619263 399.254303 1439.398438 394.824585 1427.428955 385.965363 C 1415.459595 377.106171 1409.0979 365.890564 1408.343872 352.318909 L 1448.210693 352.318909 C 1451.414917 365.701996 1461.405151 372.393677 1478.181152 372.393677 C 1488.548584 372.393677 1496.512573 369.33075 1502.073242 363.204529 C 1507.634033 357.078339 1510.414185 348.360504 1510.414185 337.050781 L 1510.414185 316.976013 L 1509.848633 316.976013 C 1505.890259 324.138733 1500.093994 329.699463 1492.459961 333.657867 C 1484.825928 337.616272 1476.013672 339.595459 1466.023438 339.595459 C 1446.420044 339.595459 1431.104736 333.186523 1420.077637 320.368896 C 1409.050659 307.551331 1403.537231 289.45575 1403.537231 266.082184 C 1403.537231 245.347778 1409.333496 228.100433 1420.925903 214.340179 C 1432.518433 200.579895 1447.645142 193.69989 1466.306274 193.69989 Z M 1443.686401 265.516418 C 1443.686401 279.276703 1446.561401 290.020386 1452.310425 297.748596 C 1458.059448 305.476807 1466.023438 309.341064 1476.202271 309.341064 C 1486.56958 309.341064 1494.863281 305.618195 1501.083618 298.172729 C 1507.303955 290.727234 1510.414185 280.878448 1510.414185 268.626312 C 1510.414185 253.923676 1507.445435 242.802521 1501.507813 235.262604 C 1495.57019 227.722687 1487.040649 223.952881 1475.919556 223.952881 C 1465.552124 223.952881 1457.588135 227.864075 1452.027344 235.686737 C 1446.466675 243.509399 1443.686401 253.452606 1443.686401 265.516418 Z M 1648.110107 193.69989 C 1690.710327 193.888489 1712.010254 207.74234 1712.010254 235.262604 L 1712.010254 312.734253 C 1712.010254 327.060028 1713.706665 337.427399 1717.099609 343.836365 L 1676.384521 343.836365 C 1674.876587 339.312439 1673.934204 334.599945 1673.557373 329.699158 C 1661.682129 341.762939 1645.283081 347.794739 1624.359985 347.794739 C 1609.091797 347.794739 1596.981079 343.930481 1588.027466 336.202271 C 1579.073853 328.47406 1574.59729 317.729797 1574.59729 303.969513 C 1574.59729 290.586426 1578.838379 280.219086 1587.320679 272.867767 C 1595.991577 265.139526 1611.731079 260.238739 1634.539063 258.165375 C 1650.749634 256.468933 1661.022461 254.348358 1665.357788 251.80365 C 1669.693115 249.258972 1671.860962 245.347778 1671.860962 240.069794 C 1671.860962 233.472565 1669.881714 228.571777 1665.92334 225.367432 C 1661.964966 222.163116 1655.367676 220.560791 1646.131226 220.560791 C 1637.649048 220.560791 1631.240112 222.304474 1626.904663 225.791534 C 1622.569458 229.278625 1620.02478 234.886261 1619.27063 242.614502 L 1579.121094 242.614502 C 1580.063477 226.592285 1586.660767 214.434326 1598.912842 206.140625 C 1611.165039 197.846893 1627.564087 193.69989 1648.110107 193.69989 Z M 1614.746582 302.272766 C 1614.746582 314.713501 1622.946045 320.933838 1639.345215 320.933838 C 1660.833618 320.745239 1671.671997 309.718262 1671.860596 287.852875 L 1671.860596 272.301971 C 1668.656372 275.506317 1660.550903 277.862427 1647.5448 279.3703 C 1636.234985 280.68985 1627.941284 282.999023 1622.66333 286.297791 C 1617.385254 289.596558 1614.746582 294.921448 1614.746582 302.272766 Z M 1794.005859 153.833099 L 1794.005981 197.658295 L 1823.411377 197.658295 L 1823.411377 224.518921 L 1794.005981 224.518921 L 1794.005981 296.901245 C 1794.005981 303.687073 1795.136963 308.210938 1797.398926 310.4729 C 1799.660889 312.734833 1804.184814 313.865814 1810.970703 313.865814 C 1815.87146 313.865814 1820.018433 313.488922 1823.411377 312.734833 L 1823.411377 344.119385 C 1817.75647 345.061768 1809.839722 345.533081 1799.660889 345.533081 C 1784.204224 345.533081 1772.705933 342.894226 1765.166016 337.616272 C 1757.626099 332.338318 1753.856201 323.19635 1753.856201 310.190186 L 1753.856201 224.518921 L 1729.540283 224.518921 L 1729.540283 197.658295 L 1753.856201 197.658295 L 1753.856201 153.833099 L 1794.005859 153.833099 Z M 1910.213257 193.69989 C 1923.973511 193.69989 1936.226196 196.903961 1946.970459 203.312897 C 1957.714722 209.721832 1966.14978 219.005157 1972.276001 231.163116 C 1978.4021 243.321075 1981.465088 257.316864 1981.465088 273.150513 C 1981.465088 274.658386 1981.371094 277.108887 1981.182373 280.501831 L 1875.719116 280.501831 C 1876.095947 292.188446 1879.158936 301.283447 1884.907959 307.78656 C 1890.657104 314.289673 1899.469238 317.541199 1911.344604 317.541199 C 1918.695801 317.541199 1925.434448 315.703369 1931.560669 312.02771 C 1937.686768 308.352051 1941.598022 303.875366 1943.294434 298.597412 L 1978.637329 298.597412 C 1968.27002 331.39563 1945.462036 347.794739 1910.213257 347.794739 C 1896.8302 347.60614 1884.436646 344.68457 1873.032837 339.029724 C 1861.628906 333.374817 1852.533936 324.562561 1845.748047 312.593201 C 1838.962158 300.62381 1835.569336 286.722168 1835.569336 270.88855 C 1835.569336 255.997314 1839.009399 242.425629 1845.889404 230.173523 C 1852.769409 217.921387 1861.911377 208.779449 1873.315186 202.747711 C 1884.719116 196.715912 1897.018555 193.69989 1910.213257 193.69989 Z M 1941.032837 255.054932 C 1939.147705 244.122101 1935.660645 236.205261 1930.571289 231.304474 C 1925.481934 226.403687 1918.224854 223.953156 1908.800049 223.953156 C 1898.998291 223.953156 1891.27002 226.733368 1885.615112 232.294067 C 1879.960327 237.854797 1876.661499 245.44165 1875.719116 255.054932 L 1941.032837 255.054932 Z M 2157.331055 137.151245 C 2182.023682 137.151245 2201.673584 142.806396 2216.281982 154.116119 C 2230.890625 165.425842 2238.19458 181.448059 2238.19458 202.182495 L 2195.217773 202.182495 C 2194.6521 192.003723 2191.212158 184.369659 2184.897461 179.280273 C 2178.583008 174.190887 2168.828369 171.64621 2155.633545 171.64621 C 2146.397217 171.64621 2138.95166 173.672638 2133.296875 177.725189 C 2127.64209 181.77774 2124.814453 187.385406 2124.814453 194.548126 C 2124.814453 200.391602 2126.55835 204.632751 2130.04541 207.271576 C 2133.532471 209.910431 2138.480469 212.266541 2144.889404 214.339874 C 2151.29834 216.413239 2162.513916 219.42926 2178.536133 223.387665 C 2195.312256 227.534668 2208.224121 232.058563 2217.271973 236.959351 C 2226.319824 241.860138 2233.199707 248.127716 2237.912109 255.76178 C 2242.624756 263.395844 2244.980713 272.773621 2244.980713 283.894745 C 2244.980713 296.712341 2241.587891 308.116241 2234.802002 318.106415 C 2228.016113 328.096558 2218.120117 335.683441 2205.114014 340.866943 C 2192.10791 346.050507 2177.405273 348.642395 2161.006104 348.642395 C 2135.936035 348.642395 2115.343018 342.374847 2099.226563 329.839966 C 2083.110352 317.305115 2075.052002 300.10498 2075.052002 278.239594 L 2075.052002 276.825867 L 2118.029053 276.825867 C 2118.029053 288.701111 2122.081543 297.890259 2130.187012 304.393372 C 2138.29248 310.896454 2149.036621 314.14801 2162.419678 314.14801 C 2174.294922 314.14801 2183.861084 312.027405 2191.118164 307.786285 C 2198.375244 303.545105 2202.003906 297.277527 2202.003906 288.983856 C 2202.003906 283.517578 2200.024658 278.899536 2196.066162 275.1297 C 2192.10791 271.359863 2186.829834 268.296936 2180.232422 265.940826 C 2173.635254 263.584717 2162.51416 260.615936 2146.869141 257.034393 C 2128.773682 252.510529 2115.578857 247.703888 2107.285156 242.614502 C 2098.991455 237.525116 2092.676758 231.35199 2088.341553 224.094818 C 2084.006348 216.837646 2081.838379 208.119812 2081.838379 197.941071 C 2081.838379 185.311768 2085.466797 174.28476 2092.724121 164.860077 C 2099.981201 155.435394 2109.453125 148.460968 2121.139893 143.937073 C 2132.826416 139.413177 2144.890381 137.151245 2157.331055 137.151245 Z M 2317.929199 153.833099 L 2317.929443 197.658295 L 2347.334717 197.658295 L 2347.334717 224.518921 L 2317.929443 224.518921 L 2317.929443 296.901245 C 2317.929443 303.687073 2319.060303 308.210938 2321.322266 310.4729 C 2323.584229 312.734833 2328.108154 313.865814 2334.894043 313.865814 C 2339.794678 313.865814 2343.941895 313.488922 2347.334717 312.734833 L 2347.334717 344.119385 C 2341.679932 345.061768 2333.762939 345.533081 2323.584229 345.533081 C 2308.127686 345.533081 2296.62915 342.894226 2289.089355 337.616272 C 2281.549316 332.338318 2277.779541 323.19635 2277.779541 310.190186 L 2277.779541 224.518921 L 2253.463623 224.518921 L 2253.463623 197.658295 L 2277.779541 197.658295 L 2277.779541 153.833099 L 2317.929199 153.833099 Z M 2406.710449 197.658295 L 2406.710449 280.501526 C 2406.710449 291.811279 2408.501221 300.576324 2412.082764 306.796661 C 2415.664307 313.017029 2422.449951 316.127197 2432.440186 316.127197 C 2443.561279 316.127197 2451.525391 312.82843 2456.332031 306.231201 C 2461.138672 299.633942 2463.541992 289.078278 2463.541992 274.564209 L 2463.541992 197.65802 L 2503.691406 197.65802 L 2503.691406 343.836365 L 2465.52124 343.836365 L 2465.52124 323.478821 L 2464.673096 323.478821 C 2454.682861 339.689331 2439.69751 347.794739 2419.716797 347.794739 C 2400.678711 347.794739 2387.059814 342.940857 2378.860352 333.233459 C 2370.660645 323.526031 2366.561035 308.58786 2366.561035 288.418915 L 2366.561035 197.658295 L 2406.710449 197.658295 Z M 2676.730469 141.957886 L 2676.730469 343.836609 L 2638.560059 343.836609 L 2638.560059 325.175537 L 2637.994629 325.175537 C 2629.32373 340.255127 2614.526855 347.795044 2593.604004 347.795044 C 2573.434814 347.795044 2557.459961 340.443695 2545.678955 325.741028 C 2533.897705 311.038391 2528.007568 292.283173 2528.007568 269.475128 C 2528.007568 247.232544 2533.992188 229.042816 2545.96167 214.90567 C 2557.930908 200.768494 2573.529053 193.69989 2592.755615 193.69989 C 2601.61499 193.69989 2609.955811 195.53775 2617.77832 199.213409 C 2625.601074 202.889069 2631.680176 208.308411 2636.015381 215.47113 L 2636.580811 215.47113 L 2636.580811 141.957886 L 2676.730469 141.957886 Z M 2568.156982 270.606079 C 2568.156982 283.989197 2571.314209 295.157532 2577.628662 304.111176 C 2583.943115 313.064819 2592.56665 317.541473 2603.499756 317.541473 C 2614.998047 317.541473 2623.621582 313.347534 2629.370605 304.959412 C 2635.119873 296.571259 2637.994385 285.026001 2637.994385 270.323364 C 2637.994385 255.620697 2634.978271 244.216797 2628.946533 236.11142 C 2622.914795 228.005981 2614.338379 223.953461 2603.217041 223.953461 C 2591.71875 223.953461 2583.000977 228.19458 2577.063477 236.67688 C 2571.125977 245.15921 2568.156982 256.468933 2568.156982 270.606079 Z M 2748.264648 141.957886 L 2748.264648 175.038849 L 2708.11499 175.038849 L 2708.11499 141.957886 L 2748.264648 141.957886 Z M 2748.264648 197.658295 L 2748.264648 343.836609 L 2708.11499 343.836609 L 2708.11499 197.658295 L 2748.264648 197.658295 Z M 2850.900391 193.69989 C 2874.273682 193.69989 2892.746338 200.815704 2906.317871 215.047028 C 2919.889648 229.278351 2926.675537 247.892181 2926.675537 270.88855 C 2926.675537 294.073517 2919.748291 312.687347 2905.893799 326.730347 C 2892.039551 340.773376 2873.708496 347.794739 2850.900391 347.794739 C 2827.715332 347.794739 2809.336914 340.678955 2795.765381 326.447601 C 2782.193604 312.216309 2775.407959 293.696594 2775.407959 270.88855 C 2775.407959 247.326691 2782.335205 228.571472 2796.189453 214.622894 C 2810.043945 200.674316 2828.281006 193.69989 2850.900391 193.69989 Z M 2815.557373 270.888855 C 2815.557373 285.78009 2818.573486 297.277832 2824.605225 305.38324 C 2830.636963 313.488647 2839.4021 317.541199 2850.900391 317.541199 C 2862.775391 317.541199 2871.681885 313.394196 2877.619629 305.100464 C 2883.557129 296.806793 2886.526123 285.402893 2886.526123 270.888855 C 2886.526123 255.809296 2883.463135 244.216797 2877.33667 236.11142 C 2871.210693 228.005981 2862.304199 223.953461 2850.617432 223.953461 C 2839.307861 223.953461 2830.636963 228.005981 2824.605225 236.11142 C 2818.573486 244.216797 2815.557373 255.809296 2815.557373 270.888855 Z M 3012.629639 193.69989 C 3032.23291 193.69989 3047.547363 197.6586 3058.574219 205.575409 C 3069.601318 213.492218 3075.774414 225.084717 3077.093994 240.352844 L 3038.923584 240.352844 C 3038.35791 233.378418 3035.813477 228.336243 3031.289307 225.226074 C 3026.765625 222.115906 3020.168457 220.560791 3011.497559 220.560791 C 3003.95752 220.560791 2998.349854 221.691772 2994.674072 223.953705 C 2990.998535 226.215668 2989.160645 229.608582 2989.160645 234.132477 C 2989.160645 237.525391 2990.385742 240.352844 2992.836182 242.614777 C 2995.286865 244.87674 2999.009766 246.855927 3004.004883 248.552399 C 3009.000244 250.24884 3014.513916 251.662567 3020.54541 252.793549 C 3038.829834 256.375061 3051.741699 260.05072 3059.281494 263.820526 C 3066.821533 267.590363 3072.334961 272.114258 3075.822021 277.392212 C 3079.309082 282.670166 3081.052979 289.173279 3081.052979 296.901489 C 3081.052979 313.300598 3075.068115 325.88269 3063.098633 334.647736 C 3051.12915 343.412781 3034.871582 347.795288 3014.325439 347.795288 C 2992.836914 347.795288 2976.10791 343.177246 2964.138428 333.940887 C 2952.168945 324.704529 2945.99585 312.169617 2945.619141 296.335999 L 2983.789307 296.335999 C 2983.789307 303.875946 2986.710938 309.860779 2992.554443 314.290497 C 2998.397949 318.720215 3005.749268 320.934937 3014.608398 320.934937 C 3022.148438 320.934937 3028.415771 319.285706 3033.411133 315.986969 C 3038.40625 312.688171 3040.903809 308.117065 3040.903809 302.273621 C 3040.903809 298.503784 3039.348877 295.393646 3036.238525 292.943115 C 3033.128418 290.492554 3028.74585 288.324768 3023.091064 286.439697 C 3017.436035 284.554657 3008.671143 282.386871 2996.795898 279.93634 C 2987.371094 278.05127 2978.98291 275.506592 2971.631836 272.302246 C 2964.280518 269.097931 2958.672607 264.904022 2954.808594 259.72049 C 2950.944336 254.536926 2949.012207 248.175232 2949.012207 240.635284 C 2949.012207 231.022034 2951.321533 222.633881 2955.939453 215.47113 C 2960.557617 208.308411 2967.626221 202.889069 2977.145264 199.213409 C 2986.664307 195.53775 2998.492432 193.69989 3012.629639 193.69989 Z"/>
        </g>
    </g>
</svg>
